<?xml version="1.0" encoding="UTF-8" standalone="no"?>
<svg width="189px" height="53px" viewBox="0 0 189 53" version="1.1" xmlns="http://www.w3.org/2000/svg" xmlns:xlink="http://www.w3.org/1999/xlink" xmlns:sketch="http://www.bohemiancoding.com/sketch/ns">
    <!-- Generator: Sketch 3.4.2 (15855) - http://www.bohemiancoding.com/sketch -->
    <title>THE-FREEZER</title>
    <desc>Created with Sketch.</desc>
    <defs></defs>
    <g id="Page-1" stroke="none" stroke-width="1" fill="none" fill-rule="evenodd" sketch:type="MSPage">
        <path d="M62.375,17 L66.675,17 L66.675,4.35 L70.975,4.35 L70.975,0.75 L58.075,0.75 L58.075,4.35 L62.375,4.35 L62.375,17 Z M87.375,17 L91.675,17 L91.675,10.55 L96.525,10.55 L96.525,17 L100.825,17 L100.825,0.75 L96.525,0.75 L96.525,6.8 L91.675,6.8 L91.675,0.75 L87.375,0.75 L87.375,17 Z M117.425,17 L128.175,17 L128.175,13.4 L121.725,13.4 L121.725,10.5 L127.025,10.5 L127.025,6.9 L121.725,6.9 L121.725,4.35 L127.925,4.35 L127.925,0.75 L117.425,0.75 L117.425,17 Z M0.225,53 L4.525,53 L4.525,47.05 L9.925,47.05 L9.925,43.45 L4.525,43.45 L4.525,40.35 L10.825,40.35 L10.825,36.75 L0.225,36.75 L0.225,53 Z M28.625,53 L32.925,53 L32.925,47.55 L34.575,47.55 L37.375,53 L42.175,53 L38.65,46.7 C40.225,45.85 41.275,44.325 41.275,42 C41.275,37.95 38.275,36.75 34.775,36.75 L28.625,36.75 L28.625,53 Z M32.925,44.15 L32.925,40.15 L34.475,40.15 C36.175,40.15 37.075,40.6 37.075,42 C37.075,43.4 36.175,44.15 34.475,44.15 L32.925,44.15 Z M59.375,53 L70.125,53 L70.125,49.4 L63.675,49.4 L63.675,46.5 L68.975,46.5 L68.975,42.9 L63.675,42.9 L63.675,40.35 L69.875,40.35 L69.875,36.75 L59.375,36.75 L59.375,53 Z M88.275,53 L99.025,53 L99.025,49.4 L92.575,49.4 L92.575,46.5 L97.875,46.5 L97.875,42.9 L92.575,42.9 L92.575,40.35 L98.775,40.35 L98.775,36.75 L88.275,36.75 L88.275,53 Z M116.175,53 L128.175,53 L128.175,49.4 L121.475,49.4 L128.125,39.35 L128.125,36.75 L116.825,36.75 L116.825,40.35 L122.825,40.35 L116.175,50.4 L116.175,53 Z M145.725,53 L156.475,53 L156.475,49.4 L150.025,49.4 L150.025,46.5 L155.325,46.5 L155.325,42.9 L150.025,42.9 L150.025,40.35 L156.225,40.35 L156.225,36.75 L145.725,36.75 L145.725,53 Z M174.625,53 L178.925,53 L178.925,47.55 L180.575,47.55 L183.375,53 L188.175,53 L184.65,46.7 C186.225,45.85 187.275,44.325 187.275,42 C187.275,37.95 184.275,36.75 180.775,36.75 L174.625,36.75 L174.625,53 Z M178.925,44.15 L178.925,40.15 L180.475,40.15 C182.175,40.15 183.075,40.6 183.075,42 C183.075,43.4 182.175,44.15 180.475,44.15 L178.925,44.15 Z" id="THE" fill="#F9F9F9" sketch:type="MSShapeGroup"></path>
    </g>
</svg>